<?xml version="1.0" encoding="utf-8"?>
<!-- Generator: Adobe Illustrator 18.1.1, SVG Export Plug-In . SVG Version: 6.00 Build 0)  -->
<svg version="1.1" id="icon" xmlns="http://www.w3.org/2000/svg" xmlns:xlink="http://www.w3.org/1999/xlink" x="0px" y="0px"
	 viewBox="0 0 32 32" enable-background="new 0 0 32 32" xml:space="preserve">
<path id="directory" fill="#1565C0" d="M27,7H16l-3-3H5C3.3,4,2,5.3,2,7v18c0,1.7,1.3,3,3,3h22c1.7,0,3-1.3,3-3V10
	C30,8.3,28.7,7,27,7z"/>
<path id="tab" fill="#5E92F3" d="M16,7l-3-3H5C3.3,4,2,5.3,2,7H16z"/>
<rect id="head" x="2" y="7" fill="#FF9800" width="9" height="2"/>
<linearGradient id="shadow_1_" gradientUnits="userSpaceOnUse" x1="6.7556" y1="14.2174" x2="14.6234" y2="19.7265">
	<stop  offset="0" style="stop-color:#000000"/>
	<stop  offset="1" style="stop-color:#1565C0"/>
</linearGradient>
<path id="shadow" fill="url(#shadow_1_)" d="M18,19v-1.4c0.6-0.7,1-1.6,1-2.6c0-2.2-1.8-4-4-4c-1.9,0-3.6,1.4-3.9,3.2
	C10.7,14.1,10.4,14,10,14c-1.7,0-3,1.3-3,3c0,0.9,0.4,1.6,1,2.2c-1.1,0.4-2,1.5-2,2.8c0,1.7,1.3,3,3,3h9c1.7,0,3-1.3,3-3
	S19.7,19,18,19z"/>
<path id="cloud" fill="#FFFFFF" d="M9,25c-1.7,0-3-1.3-3-3c0-1.3,0.8-2.4,2-2.8c-0.6-0.5-1-1.3-1-2.2c0-1.7,1.3-3,3-3
	c0.4,0,0.7,0.1,1.1,0.2c0.4-1.8,2-3.2,3.9-3.2c0.4,0,0.7,0.1,1.1,0.2l0.7-0.8C16.2,10.1,15.6,10,15,10c-2.1,0-3.8,1.3-4.6,3
	c-0.1,0-0.3,0-0.4,0c-2.2,0-4,1.8-4,4c0,0.7,0.2,1.3,0.5,1.9C5.6,19.6,5,20.7,5,22c0,2.2,1.8,4,4,4h13l-0.8-1H9z"/>
<polygon id="down" fill="#FFFFFF" points="25,25 21,20 24,20 24,16 26,16 26,20 29,20 "/>
<polygon id="up" fill="#FFFFFF" points="20,9 24,14 21,14 21,18 19,18 19,14 16,14 "/>
</svg>
