<?xml version="1.0" encoding="utf-8"?>
<!-- Generator: Adobe Illustrator 18.1.1, SVG Export Plug-In . SVG Version: 6.00 Build 0)  -->
<svg version="1.1" id="icon" xmlns="http://www.w3.org/2000/svg" xmlns:xlink="http://www.w3.org/1999/xlink" x="0px" y="0px"
	 viewBox="0 0 32 32" enable-background="new 0 0 32 32" xml:space="preserve">
<path fill="#5B5B5B" d="M27,7H16l-3-3H5C3.3,4,2,5.3,2,7v18c0,1.7,1.3,3,3,3h22c1.7,0,3-1.3,3-3V10C30,8.3,28.7,7,27,7z M24,14h-3v4
	h-2v-4h-3l4-5L24,14z M9,25c-2.2,0-4-1.8-4-4c0-1.3,0.6-2.4,1.5-3.1C6.2,17.3,6,16.7,6,16c0-2.2,1.8-4,4-4c0.1,0,0.3,0,0.4,0
	c0.8-1.8,2.5-3,4.6-3c0.6,0,1.2,0.1,1.7,0.3l-0.7,0.8C15.7,10.1,15.4,10,15,10c-1.9,0-3.6,1.4-3.9,3.2C10.7,13.1,10.4,13,10,13
	c-1.7,0-3,1.3-3,3c0,0.9,0.4,1.6,1,2.2c-1.1,0.4-2,1.5-2,2.8c0,1.7,1.3,3,3,3h12.2l0.8,1H9z M25,25l-4-5h3v-4h2v4h3L25,25z"/>
</svg>
